<svg width="1440" height="1015" viewBox="0 0 1440 1015" fill="none" xmlns="http://www.w3.org/2000/svg">
<g clip-path="url(#clip0_13_289)">
<rect width="1440" height="1024" transform="translate(0 -9)" fill="#CCF7FF"/>
<path d="M134.323 -43C175.219 -43 208.372 -9.84723 208.372 31.0488C208.372 32.6894 208.319 34.3176 208.214 35.9316H236.446C267.68 35.9318 293 61.2516 293 92.4854C293 123.719 267.68 149.039 236.446 149.039H127.407C119.763 149.039 112.473 147.521 105.821 144.772C90.4439 156.02 70.0441 162.872 47.6621 162.872C-0.199688 162.872 -38.9997 131.541 -39 92.8926C-39 54.2435 -0.199863 22.9121 47.6621 22.9121C52.0713 22.9121 56.4036 23.1784 60.6357 23.6914C64.329 -13.7505 95.9102 -42.9999 134.323 -43Z" fill="white"/>
<path d="M1149.68 60C1108.78 60 1075.63 93.1528 1075.63 134.049C1075.63 135.689 1075.68 137.318 1075.79 138.932H1047.55C1016.32 138.932 991 164.252 991 195.485C991 226.719 1016.32 252.039 1047.55 252.039H1156.59C1164.24 252.039 1171.53 250.521 1178.18 247.772C1193.56 259.02 1213.96 265.872 1236.34 265.872C1284.2 265.872 1323 234.541 1323 195.893C1323 157.243 1284.2 125.912 1236.34 125.912C1231.93 125.912 1227.6 126.178 1223.36 126.691C1219.67 89.2495 1188.09 60.0001 1149.68 60Z" fill="white"/>
<path d="M384.323 171C425.219 171 458.372 194.511 458.372 223.514C458.372 224.677 458.319 225.832 458.214 226.977H502.894C525.044 226.977 543 244.933 543 267.083C543 289.233 525.044 307.19 502.894 307.19H360.96C357.802 307.19 354.73 306.824 351.782 306.134C336.952 312.933 318.137 317 297.662 317C249.8 317 211 294.781 211 267.372C211 239.963 249.8 217.743 297.662 217.743C302.071 217.743 306.404 217.932 310.636 218.296C314.329 191.743 345.91 171 384.323 171Z" fill="white"/>
<path d="M1447.32 -43C1488.22 -43 1521.37 -19.4889 1521.37 9.51367C1521.37 10.6771 1521.32 11.832 1521.21 12.9766H1565.89C1588.04 12.9768 1606 30.9329 1606 53.083C1606 75.2333 1588.04 93.1902 1565.89 93.1904H1423.96C1420.8 93.1904 1417.73 92.8238 1414.78 92.1338C1399.95 98.933 1381.14 103 1360.66 103C1312.8 103 1274 80.781 1274 53.3721C1274 25.963 1312.8 3.74316 1360.66 3.74316C1365.07 3.74318 1369.4 3.93206 1373.64 4.2959C1377.33 -22.257 1408.91 -42.9999 1447.32 -43Z" fill="white"/>
<path d="M710.492 -43C799.798 -43 872.196 -19.4889 872.196 9.51367C872.196 10.6772 872.078 11.8319 871.849 12.9766H1016.89C1039.04 12.9766 1057 30.9328 1057 53.083C1057 75.2333 1039.04 93.1904 1016.89 93.1904H634.219C602.689 99.3524 563.592 103 521.246 103C416.729 103 332.001 80.781 332 53.3721C332 25.963 416.728 3.7432 521.246 3.74316C530.875 3.74316 540.337 3.93203 549.579 4.2959C557.645 -22.2568 626.609 -43 710.492 -43Z" fill="white"/>
<path d="M37.6768 283C-3.21925 283 -36.3719 306.511 -36.3721 335.514C-36.3721 336.677 -36.3189 337.832 -36.2139 338.977H-80.8936C-103.044 338.977 -121 356.933 -121 379.083C-121 401.233 -103.044 419.19 -80.8936 419.19H61.04C64.1978 419.19 67.2703 418.824 70.2178 418.134C85.0476 424.933 103.863 429 124.338 429C172.2 429 211 406.781 211 379.372C211 351.963 172.2 329.743 124.338 329.743C119.929 329.743 115.596 329.932 111.364 330.296C107.671 303.743 76.0897 283 37.6768 283Z" fill="white"/>
<path d="M1388.68 266C1347.78 266 1314.63 289.511 1314.63 318.514C1314.63 319.677 1314.68 320.832 1314.79 321.977H1270.11C1247.96 321.977 1230 339.933 1230 362.083C1230 384.233 1247.96 402.19 1270.11 402.19H1412.04C1415.2 402.19 1418.27 401.824 1421.22 401.134C1436.05 407.933 1454.86 412 1475.34 412C1523.2 412 1562 389.781 1562 362.372C1562 334.963 1523.2 312.743 1475.34 312.743C1470.93 312.743 1466.6 312.932 1462.36 313.296C1458.67 286.743 1427.09 266 1388.68 266Z" fill="white"/>
<path d="M881.228 283C851.788 283 827.922 306.511 827.922 335.514C827.922 336.677 827.961 337.832 828.036 338.977H807.106C784.956 338.977 767 356.933 767 379.083C767 401.233 784.956 419.19 807.106 419.19H886.812C892.142 419.19 897.228 418.147 901.881 416.26C912.935 424.179 927.567 429 943.614 429C978.069 429 1006 406.781 1006 379.372C1006 351.963 978.069 329.743 943.614 329.743C940.44 329.743 937.321 329.932 934.274 330.296C931.616 303.743 908.88 283 881.228 283Z" fill="white"/>
<circle cx="719.5" cy="-9.5" r="253.5" fill="#FFFB00"/>
</g>
<defs>
<clipPath id="clip0_13_289">
<rect width="1440" height="1024" fill="white" transform="translate(0 -9)"/>
</clipPath>
</defs>
</svg>
