<svg width="306" height="545" viewBox="0 0 306 545" fill="none" xmlns="http://www.w3.org/2000/svg">
<path d="M150 178C150 166.954 158.954 158 170 158H286C297.046 158 306 166.954 306 178V545H150V178Z" fill="#7C8BAE"/>
<path d="M0 20C0 8.95432 8.9543 0 20 0H174C185.046 0 194 8.9543 194 20V545H0V20Z" fill="#9CA5BA"/>
<path d="M42 46.4206C42 35.1426 51.1426 26 62.4206 26H66.5047C77.7827 26 86.9253 35.1426 86.9253 46.4206C86.9253 57.6986 77.7827 66.8412 66.5047 66.8412H62.4206C51.1426 66.8412 42 57.6986 42 46.4206Z" fill="#4D4D4D"/>
<path d="M108 46.4206C108 35.1426 117.143 26 128.421 26H132.505C143.783 26 152.925 35.1426 152.925 46.4206C152.925 57.6986 143.783 66.8412 132.505 66.8412H128.421C117.143 66.8412 108 57.6986 108 46.4206Z" fill="#4D4D4D"/>
<path d="M42 97.4206C42 86.1426 51.1426 77 62.4206 77H66.5047C77.7827 77 86.9253 86.1426 86.9253 97.4206C86.9253 108.699 77.7827 117.841 66.5047 117.841H62.4206C51.1426 117.841 42 108.699 42 97.4206Z" fill="#4D4D4D"/>
<path d="M108 97.4206C108 86.1426 117.143 77 128.421 77H132.505C143.783 77 152.925 86.1426 152.925 97.4206C152.925 108.699 143.783 117.841 132.505 117.841H128.421C117.143 117.841 108 108.699 108 97.4206Z" fill="#4D4D4D"/>
<path d="M42 148.421C42 137.143 51.1426 128 62.4206 128H66.5047C77.7827 128 86.9253 137.143 86.9253 148.421C86.9253 159.699 77.7827 168.841 66.5047 168.841H62.4206C51.1426 168.841 42 159.699 42 148.421Z" fill="#4D4D4D"/>
<path d="M108 148.421C108 137.143 117.143 128 128.421 128H132.505C143.783 128 152.925 137.143 152.925 148.421C152.925 159.699 143.783 168.841 132.505 168.841H128.421C117.143 168.841 108 159.699 108 148.421Z" fill="#4D4D4D"/>
<path d="M42 199.421C42 188.143 51.1426 179 62.4206 179H66.5047C77.7827 179 86.9253 188.143 86.9253 199.421C86.9253 210.699 77.7827 219.841 66.5047 219.841H62.4206C51.1426 219.841 42 210.699 42 199.421Z" fill="#4D4D4D"/>
<path d="M108 199.421C108 188.143 117.143 179 128.421 179H132.505C143.783 179 152.925 188.143 152.925 199.421C152.925 210.699 143.783 219.841 132.505 219.841H128.421C117.143 219.841 108 210.699 108 199.421Z" fill="#4D4D4D"/>
<path d="M42 250.421C42 239.143 51.1426 230 62.4206 230H66.5047C77.7827 230 86.9253 239.143 86.9253 250.421C86.9253 261.699 77.7827 270.841 66.5047 270.841H62.4206C51.1426 270.841 42 261.699 42 250.421Z" fill="#4D4D4D"/>
<path d="M108 250.421C108 239.143 117.143 230 128.421 230H132.505C143.783 230 152.925 239.143 152.925 250.421C152.925 261.699 143.783 270.841 132.505 270.841H128.421C117.143 270.841 108 261.699 108 250.421Z" fill="#4D4D4D"/>
<path d="M42 301.421C42 290.143 51.1426 281 62.4206 281H66.5047C77.7827 281 86.9253 290.143 86.9253 301.421C86.9253 312.699 77.7827 321.841 66.5047 321.841H62.4206C51.1426 321.841 42 312.699 42 301.421Z" fill="#4D4D4D"/>
<path d="M108 301.421C108 290.143 117.143 281 128.421 281H132.505C143.783 281 152.925 290.143 152.925 301.421C152.925 312.699 143.783 321.841 132.505 321.841H128.421C117.143 321.841 108 312.699 108 301.421Z" fill="#4D4D4D"/>
<path d="M42 352.421C42 341.143 51.1426 332 62.4206 332H66.5047C77.7827 332 86.9253 341.143 86.9253 352.421C86.9253 363.699 77.7827 372.841 66.5047 372.841H62.4206C51.1426 372.841 42 363.699 42 352.421Z" fill="#4D4D4D"/>
<path d="M108 352.421C108 341.143 117.143 332 128.421 332H132.505C143.783 332 152.925 341.143 152.925 352.421C152.925 363.699 143.783 372.841 132.505 372.841H128.421C117.143 372.841 108 363.699 108 352.421Z" fill="#4D4D4D"/>
<path d="M42 403.421C42 392.143 51.1426 383 62.4206 383H66.5047C77.7827 383 86.9253 392.143 86.9253 403.421C86.9253 414.699 77.7827 423.841 66.5047 423.841H62.4206C51.1426 423.841 42 414.699 42 403.421Z" fill="#4D4D4D"/>
<path d="M108 403.421C108 392.143 117.143 383 128.421 383H132.505C143.783 383 152.925 392.143 152.925 403.421C152.925 414.699 143.783 423.841 132.505 423.841H128.421C117.143 423.841 108 414.699 108 403.421Z" fill="#4D4D4D"/>
<path d="M42 454.421C42 443.143 51.1426 434 62.4206 434H66.5047C77.7827 434 86.9253 443.143 86.9253 454.421C86.9253 465.699 77.7827 474.841 66.5047 474.841H62.4206C51.1426 474.841 42 465.699 42 454.421Z" fill="#4D4D4D"/>
<path d="M108 454.421C108 443.143 117.143 434 128.421 434H132.505C143.783 434 152.925 443.143 152.925 454.421C152.925 465.699 143.783 474.841 132.505 474.841H128.421C117.143 474.841 108 465.699 108 454.421Z" fill="#4D4D4D"/>
<path d="M42 505.421C42 494.143 51.1426 485 62.4206 485H66.5047C77.7827 485 86.9253 494.143 86.9253 505.421C86.9253 516.699 77.7827 525.841 66.5047 525.841H62.4206C51.1426 525.841 42 516.699 42 505.421Z" fill="#4D4D4D"/>
<path d="M108 505.421C108 494.143 117.143 485 128.421 485H132.505C143.783 485 152.925 494.143 152.925 505.421C152.925 516.699 143.783 525.841 132.505 525.841H128.421C117.143 525.841 108 516.699 108 505.421Z" fill="#4D4D4D"/>
<path d="M224 199.421C224 188.143 233.143 179 244.421 179H248.505C259.783 179 268.925 188.143 268.925 199.421C268.925 210.699 259.783 219.841 248.505 219.841H244.421C233.143 219.841 224 210.699 224 199.421Z" fill="#4D4D4D"/>
<path d="M224 250.421C224 239.143 233.143 230 244.421 230H248.505C259.783 230 268.925 239.143 268.925 250.421C268.925 261.699 259.783 270.841 248.505 270.841H244.421C233.143 270.841 224 261.699 224 250.421Z" fill="#4D4D4D"/>
<path d="M224 301.421C224 290.143 233.143 281 244.421 281H248.505C259.783 281 268.925 290.143 268.925 301.421C268.925 312.699 259.783 321.841 248.505 321.841H244.421C233.143 321.841 224 312.699 224 301.421Z" fill="#4D4D4D"/>
<path d="M224 352.421C224 341.143 233.143 332 244.421 332H248.505C259.783 332 268.925 341.143 268.925 352.421C268.925 363.699 259.783 372.841 248.505 372.841H244.421C233.143 372.841 224 363.699 224 352.421Z" fill="#4D4D4D"/>
<path d="M224 403.421C224 392.143 233.143 383 244.421 383H248.505C259.783 383 268.925 392.143 268.925 403.421C268.925 414.699 259.783 423.841 248.505 423.841H244.421C233.143 423.841 224 414.699 224 403.421Z" fill="#4D4D4D"/>
<path d="M224 454.421C224 443.143 233.143 434 244.421 434H248.505C259.783 434 268.925 443.143 268.925 454.421C268.925 465.699 259.783 474.841 248.505 474.841H244.421C233.143 474.841 224 465.699 224 454.421Z" fill="#4D4D4D"/>
<path d="M224 505.421C224 494.143 233.143 485 244.421 485H248.505C259.783 485 268.925 494.143 268.925 505.421C268.925 516.699 259.783 525.841 248.505 525.841H244.421C233.143 525.841 224 516.699 224 505.421Z" fill="#4D4D4D"/>
</svg>
