<svg width="400" height="288" viewBox="0 0 400 288" fill="none" xmlns="http://www.w3.org/2000/svg">
<rect x="31.8447" y="97.035" width="121.165" height="190.965" fill="#CBAE96"/>
<rect x="247.767" y="97.035" width="121.165" height="190.965" fill="#CBAE96"/>
<path d="M14.9347 61.3549C15.9665 56.7983 20.0159 53.5634 24.6878 53.5634L166.462 53.5634C171.096 53.5634 175.124 56.7478 176.192 61.2575L188.929 115.004C190.417 121.285 185.653 127.31 179.198 127.31H12.5175C6.10359 127.31 1.34796 121.357 2.76446 115.102L14.9347 61.3549Z" fill="#BA7D54"/>
<path d="M223.09 61.3549C224.122 56.7983 228.171 53.5634 232.843 53.5634L374.617 53.5634C379.252 53.5634 383.279 56.7478 384.347 61.2575L397.084 115.004C398.572 121.285 393.808 127.31 387.353 127.31H220.673C214.259 127.31 209.503 121.357 210.92 115.102L223.09 61.3549Z" fill="#BA7D54"/>
<rect x="125.825" y="18.6307" width="148.35" height="269.369" fill="#F0ECC8"/>
<path d="M163.884 114.482C163.884 104.846 171.695 97.035 181.33 97.035C190.966 97.035 198.777 104.846 198.777 114.482V120.171C198.777 124.903 194.941 128.739 190.208 128.739H172.452C167.72 128.739 163.884 124.903 163.884 120.171V114.482Z" fill="#4D4D4D"/>
<path d="M163.884 149.372C163.884 140.617 170.981 133.52 179.736 133.52H182.925C191.68 133.52 198.777 140.617 198.777 149.372C198.777 158.127 191.68 165.224 182.925 165.224H179.736C170.981 165.224 163.884 158.127 163.884 149.372Z" fill="#4D4D4D"/>
<path d="M202.719 114.482C202.719 104.846 210.53 97.035 220.165 97.035C229.801 97.035 237.612 104.846 237.612 114.482V120.171C237.612 124.903 233.776 128.739 229.043 128.739H211.287C206.555 128.739 202.719 124.903 202.719 120.171V114.482Z" fill="#4D4D4D"/>
<path d="M202.719 149.372C202.719 140.617 209.816 133.52 218.571 133.52H221.76C230.515 133.52 237.612 140.617 237.612 149.372C237.612 158.127 230.515 165.224 221.76 165.224H218.571C209.816 165.224 202.719 158.127 202.719 149.372Z" fill="#4D4D4D"/>
<path d="M41.9417 171.15C41.9417 161.515 49.7528 153.703 59.3884 153.703C69.0239 153.703 76.8351 161.515 76.8351 171.15V176.839C76.8351 181.571 72.9987 185.408 68.2664 185.408H50.5104C45.778 185.408 41.9417 181.571 41.9417 176.839V171.15Z" fill="#4D4D4D"/>
<path d="M41.9417 206.041C41.9417 197.286 49.0389 190.189 57.7938 190.189H60.983C69.7379 190.189 76.8351 197.286 76.8351 206.041C76.8351 214.796 69.7379 221.893 60.983 221.893H57.7938C49.0389 221.893 41.9417 214.796 41.9417 206.041Z" fill="#4D4D4D"/>
<path d="M80.7766 171.15C80.7766 161.515 88.5878 153.703 98.2233 153.703C107.859 153.703 115.67 161.515 115.67 171.15V176.839C115.67 181.571 111.834 185.408 107.101 185.408H89.3453C84.613 185.408 80.7766 181.571 80.7766 176.839V171.15Z" fill="#4D4D4D"/>
<path d="M80.7766 206.041C80.7766 197.286 87.8738 190.189 96.6287 190.189H99.8179C108.573 190.189 115.67 197.286 115.67 206.041C115.67 214.796 108.573 221.893 99.8179 221.893H96.6287C87.8738 221.893 80.7766 214.796 80.7766 206.041Z" fill="#4D4D4D"/>
<path d="M285.049 171.15C285.049 161.515 292.86 153.703 302.495 153.703C312.131 153.703 319.942 161.515 319.942 171.15V176.839C319.942 181.571 316.106 185.408 311.373 185.408H293.617C288.885 185.408 285.049 181.571 285.049 176.839V171.15Z" fill="#4D4D4D"/>
<path d="M285.049 206.041C285.049 197.286 292.146 190.189 300.901 190.189H304.09C312.845 190.189 319.942 197.286 319.942 206.041C319.942 214.796 312.845 221.893 304.09 221.893H300.901C292.146 221.893 285.049 214.796 285.049 206.041Z" fill="#4D4D4D"/>
<path d="M323.884 171.15C323.884 161.515 331.695 153.703 341.33 153.703C350.966 153.703 358.777 161.515 358.777 171.15V176.839C358.777 181.571 354.941 185.408 350.208 185.408H332.452C327.72 185.408 323.884 181.571 323.884 176.839V171.15Z" fill="#4D4D4D"/>
<path d="M323.884 206.041C323.884 197.286 330.981 190.189 339.736 190.189H342.925C351.68 190.189 358.777 197.286 358.777 206.041C358.777 214.796 351.68 221.893 342.925 221.893H339.736C330.981 221.893 323.884 214.796 323.884 206.041Z" fill="#4D4D4D"/>
<path d="M119.012 7.79156C120.044 3.23496 124.093 1.64879e-05 128.765 1.59889e-05L270.539 8.44649e-07C275.174 3.49585e-07 279.201 3.18447 280.27 7.69416L293.006 61.4408C294.495 67.7219 289.731 73.7467 283.276 73.7467H116.595C110.181 73.7467 105.426 67.7938 106.842 61.5382L119.012 7.79156Z" fill="#E99D69"/>
<path d="M173.98 225.523C173.98 211.153 185.63 199.504 200 199.504C214.37 199.504 226.019 211.153 226.019 225.523V288H173.98V225.523Z" fill="#643B24"/>
</svg>
