<svg width="216" height="125" viewBox="0 0 216 125" fill="none" xmlns="http://www.w3.org/2000/svg">
<path d="M135.075 0C158.717 0 177.883 19.1651 177.883 42.8066C177.883 43.3375 177.87 43.8664 177.851 44.3926H185.877C202.514 44.3927 216 57.8791 216 74.5156C216 91.1523 202.514 104.64 185.877 104.64H30.123C13.4865 104.639 0 91.1522 0 74.5156C0.000110302 57.8791 13.4866 44.3928 30.123 44.3926H38.1504C38.1312 43.8664 38.1182 43.3375 38.1182 42.8066C38.1184 19.1651 57.2833 0 80.9248 0H135.075Z" fill="#6AABFF"/>
<ellipse cx="61.3895" cy="100.033" rx="25.0106" ry="24.9667" fill="#AFAFAF"/>
<ellipse cx="61.3896" cy="100.033" rx="10.0043" ry="9.98667" fill="black"/>
<ellipse cx="153.587" cy="100.033" rx="25.0106" ry="24.9667" fill="#AFAFAF"/>
<ellipse cx="153.587" cy="100.033" rx="10.0043" ry="9.98667" fill="black"/>
<path d="M65.1177 30.1542C65.1177 20.5055 72.9395 12.6836 82.5883 12.6836C92.237 12.6836 100.059 20.5055 100.059 30.1542V35.8225C100.059 40.5556 96.222 44.3925 91.4889 44.3925H73.6877C68.9546 44.3925 65.1177 40.5556 65.1177 35.8225V30.1542Z" fill="#4D4D4D"/>
<path d="M115.941 30.1542C115.941 20.5055 123.763 12.6836 133.412 12.6836C143.061 12.6836 150.883 20.5055 150.883 30.1542V35.8225C150.883 40.5556 147.046 44.3925 142.313 44.3925H124.511C119.778 44.3925 115.941 40.5556 115.941 35.8225V30.1542Z" fill="#4D4D4D"/>
</svg>
