<svg width="215" height="205" viewBox="0 0 215 205" fill="none" xmlns="http://www.w3.org/2000/svg">
<path d="M30.3804 50C30.3804 22.3858 52.7661 0 80.3804 0H134.619C162.234 0 184.619 22.3858 184.619 50V185C184.619 196.046 175.665 205 164.619 205H50.3804C39.3347 205 30.3804 196.046 30.3804 185V50Z" fill="#FFD7A3"/>
<path d="M0 61.5C0 27.5345 27.5345 0 61.5 0H153.5C187.466 0 215 27.5345 215 61.5C215 69.9914 208.116 76.875 199.625 76.875H15.375C6.88362 76.875 0 69.9914 0 61.5Z" fill="#DF7E29"/>
<path d="M70.8877 113.009C70.8877 103.346 78.7219 95.5114 88.3858 95.5114C98.0497 95.5114 105.884 103.346 105.884 113.009V118.654C105.884 123.388 102.046 127.225 97.3126 127.225H79.459C74.7252 127.225 70.8877 123.388 70.8877 118.654V113.009Z" fill="#4D4D4D"/>
<path d="M70.8877 147.864C70.8877 139.107 77.9871 132.008 86.7446 132.008H90.0269C98.7845 132.008 105.884 139.107 105.884 147.864C105.884 156.622 98.7845 163.721 90.0269 163.721H86.7446C77.9871 163.721 70.8877 156.622 70.8877 147.864Z" fill="#4D4D4D"/>
<path d="M109.837 113.009C109.837 103.346 117.671 95.5114 127.335 95.5114C136.999 95.5114 144.833 103.346 144.833 113.009V118.654C144.833 123.388 140.996 127.225 136.262 127.225H118.408C113.674 127.225 109.837 123.388 109.837 118.654V113.009Z" fill="#4D4D4D"/>
<path d="M109.837 147.864C109.837 139.107 116.936 132.008 125.694 132.008H128.976C137.734 132.008 144.833 139.107 144.833 147.864C144.833 156.622 137.734 163.721 128.976 163.721H125.694C116.936 163.721 109.837 156.622 109.837 147.864Z" fill="#4D4D4D"/>
</svg>
