<svg width="223" height="302" viewBox="0 0 223 302" fill="none" xmlns="http://www.w3.org/2000/svg">
<path d="M125 144C136.768 166 115.5 216 62.9037 226C40 230.355 4.5 250.05 4.5 297.25" stroke="#18D31E" stroke-width="9" stroke-linecap="round" stroke-linejoin="round"/>
<path d="M29.2606 126.312H218.951C218.951 137.186 210.136 146 199.263 146H48.9481C38.075 146 29.2606 137.186 29.2606 126.312Z" fill="#8D8EA1"/>
<path d="M36.8574 89.1303C37.7217 85.5346 40.9378 83 44.6359 83H200.889C204.366 83 207.445 85.2467 208.507 88.5583L219.153 121.777C220.808 126.94 216.957 132.219 211.535 132.219H36.6509C31.4762 132.219 27.663 127.38 28.8724 122.349L36.8574 89.1303Z" fill="#9DCBFF"/>
<line x1="55.6057" y1="98.0374" x2="193.394" y2="98.0374" stroke="white" stroke-width="3" stroke-linecap="round"/>
<line x1="1.5" y1="-1.5" x2="34.939" y2="-1.5" transform="matrix(0.108226 -0.994126 0.994163 0.107892 71.4578 125.919)" stroke="white" stroke-width="3" stroke-linecap="round"/>
<line x1="1.5" y1="-1.5" x2="34.9385" y2="-1.5" transform="matrix(0.0467831 -0.998905 0.998912 0.0466373 106.887 126.006)" stroke="white" stroke-width="3" stroke-linecap="round"/>
<line x1="1.5" y1="-1.5" x2="34.9385" y2="-1.5" transform="matrix(-0.0467831 -0.998905 -0.998912 0.0466373 141.782 126.006)" stroke="white" stroke-width="3" stroke-linecap="round"/>
<line x1="1.5" y1="-1.5" x2="34.939" y2="-1.5" transform="matrix(-0.108226 -0.994126 -0.994163 0.107892 177.542 125.919)" stroke="white" stroke-width="3" stroke-linecap="round"/>
<line x1="48.5071" y1="114.181" x2="200.887" y2="114.181" stroke="white" stroke-width="3" stroke-linecap="round"/>
<path d="M189.334 63.1728L213.287 21.8737L183.1 45.2142L162.684 42.3382L151.038 103.603L170.28 63.5266L189.334 63.1728Z" fill="#FFB917"/>
<path d="M139.716 50.6653L143.241 3.55291L130.478 39.1048L116.437 47.6634L126.661 104.746L127.493 61.1734L139.716 50.6653Z" fill="#FFB917"/>
<path d="M59.4363 63.149L35.5459 21.8134L65.6973 45.1999L86.1177 42.355L97.6703 103.638L78.489 63.5317L59.4363 63.149Z" fill="#FFB917"/>
<path d="M90.8753 96.4124L75.5357 67.5617L95.5927 84.2864L109.629 82.8337L116.046 125.03L103.898 97.1344L90.8753 96.4124Z" fill="#FFE417"/>
<path d="M157.174 96.4124L172.514 67.5617L152.457 84.2864L138.42 82.8337L132.003 125.03L144.151 97.1344L157.174 96.4124Z" fill="#FFE417"/>
</svg>
