<svg width="307" height="333" viewBox="0 0 307 333" fill="none" xmlns="http://www.w3.org/2000/svg">
<rect x="192.306" y="94" width="35" height="239" fill="#926C33"/>
<ellipse cx="207.802" cy="48.1647" rx="49.2522" ry="48.1647" fill="#00831A"/>
<ellipse cx="163.559" cy="103.143" rx="49.2522" ry="48.1647" fill="#00831A"/>
<ellipse cx="257.054" cy="103.143" rx="49.2522" ry="48.1647" fill="#00831A"/>
<ellipse cx="207.802" cy="144.494" rx="49.2522" ry="48.1647" fill="#00831A"/>
<ellipse cx="175.663" cy="73.0694" rx="49.2522" ry="48.1647" fill="#00831A"/>
<ellipse cx="175.663" cy="129.927" rx="49.2522" ry="48.1647" fill="#00831A"/>
<ellipse cx="239.524" cy="73.0694" rx="49.2522" ry="48.1647" fill="#00831A"/>
<ellipse cx="239.524" cy="129.927" rx="49.2522" ry="48.1647" fill="#00831A"/>
<rect x="53.874" y="167.925" width="24.1742" height="165.075" fill="#926C33"/>
<ellipse cx="64.5766" cy="136.267" rx="34.018" ry="33.2669" fill="#00831A"/>
<ellipse cx="34.018" cy="174.24" rx="34.018" ry="33.2669" fill="#00831A"/>
<ellipse cx="98.5947" cy="174.24" rx="34.018" ry="33.2669" fill="#00831A"/>
<ellipse cx="64.5766" cy="202.801" rx="34.018" ry="33.2669" fill="#00831A"/>
<ellipse cx="42.3786" cy="153.468" rx="34.018" ry="33.2669" fill="#00831A"/>
<ellipse cx="42.3786" cy="192.74" rx="34.018" ry="33.2669" fill="#00831A"/>
<ellipse cx="86.4868" cy="153.468" rx="34.018" ry="33.2669" fill="#00831A"/>
<ellipse cx="86.4868" cy="192.74" rx="34.018" ry="33.2669" fill="#00831A"/>
</svg>
